<svg width="262" height="60" viewBox="0 0 262 60" fill="none" xmlns="http://www.w3.org/2000/svg">
<path d="M49.9609 32.0855C49.9609 41.5425 41.8971 43.9996 36.4448 43.9996C19.5137 43.9996 0 26.2855 0 11.9142C0 2.45712 8.06376 0 13.5161 0C30.4472 0 49.9609 17.7141 49.9609 32.0855Z" fill="url(#paint0_linear_6927_2562)"/>
<path d="M38.1948 21.7422C23.4734 21.7422 6.51367 37.1706 6.51367 49.6563C6.51367 57.8848 13.5444 59.999 18.2793 59.999C33.0007 59.999 49.9604 44.5706 49.9604 32.085C49.9604 23.8565 42.9297 21.7422 38.1948 21.7422ZM46.6316 32.6278C46.6316 42.5992 32.7137 54.6848 21.4359 54.6848C20.9768 54.6848 12.6261 54.6848 12.6261 46.9706C12.6261 36.9706 26.5439 24.9136 37.8217 24.9136C38.2809 24.9136 46.6316 24.9136 46.6316 32.6278Z" fill="url(#paint1_linear_6927_2562)"/>
<path d="M38.1943 21.7422C29.2983 21.7422 19.6017 27.3669 13.3066 34.5726C20.0857 40.1449 28.5522 43.9992 36.4438 43.9992C37.5917 43.9992 49.9599 43.9992 49.9599 32.085C49.9599 23.8565 42.9292 21.7422 38.1943 21.7422Z" fill="#004CC8"/>
<path d="M60.5488 23.1582H67.4934C73.0319 23.1582 77.7668 26.3296 77.7668 33.0153C77.7668 39.7009 73.0319 42.8723 67.4934 42.8723H60.5488V23.1582ZM73.9502 33.0153C73.9502 28.0725 70.6214 26.4153 67.1491 26.4153H64.3081V39.5866H67.1491C70.6214 39.5866 73.9502 37.9581 73.9502 33.0153Z" fill="#004CC8"/>
<path d="M79.373 35.813C79.373 31.5273 82.5297 28.5273 86.949 28.5273C91.3683 28.5273 94.4962 31.5273 94.4962 35.813C94.4962 40.0987 91.3396 43.0987 86.949 43.0987C82.5584 43.0987 79.373 40.0987 79.373 35.813ZM90.9378 35.813C90.9378 33.213 89.3308 31.5559 86.949 31.5559C84.5671 31.5559 82.9314 33.213 82.9314 35.813C82.9314 38.413 84.5384 40.0701 86.949 40.0701C89.3595 40.0701 90.9378 38.413 90.9378 35.813Z" fill="#004CC8"/>
<path d="M103.533 27.2439C106.173 27.2439 107.866 25.3582 107.866 23.1582H105.111C105.111 24.2153 104.48 24.8725 103.533 24.8725C102.586 24.8725 101.983 24.2153 101.983 23.1582H99.2285C99.2285 25.3582 100.922 27.2439 103.533 27.2439Z" fill="#004CC8"/>
<path d="M107.867 28.7579L107.178 30.3864C106.26 29.2436 104.567 28.5293 102.817 28.5293C98.6269 28.5293 96.1016 31.4436 96.1016 35.815C96.1016 40.1863 98.6269 43.1006 102.759 43.1006C104.682 43.1006 106.404 42.3863 107.178 41.2721V42.872C107.178 45.0149 105.485 46.1292 103.362 46.1292C101.755 46.1292 100.578 45.3863 100.263 44.1863H96.6468C97.0199 46.872 99.6026 48.9291 103.247 48.9291C107.552 48.9291 110.679 46.6434 110.679 42.5292V28.7579H107.867ZM103.477 40.0721C101.152 40.0721 99.6026 38.4721 99.6026 35.815C99.6026 33.1578 101.152 31.5578 103.477 31.5578C105.801 31.5578 107.379 33.1578 107.379 35.815C107.379 38.4721 105.83 40.0721 103.477 40.0721Z" fill="#004CC8"/>
<path d="M120.482 43.1006C116.565 43.1006 113.781 40.3292 113.781 36.5578V28.7578H117.34V36.5578C117.34 38.8434 118.344 40.072 120.482 40.072C122.62 40.072 123.624 38.8434 123.624 36.5578V28.7578H127.183V36.5578C127.183 40.3292 124.399 43.1006 120.482 43.1006Z" fill="#004CC8"/>
<path d="M129.535 38.0987H132.634C132.778 39.5273 133.868 40.3844 135.504 40.3844C136.939 40.3844 137.915 39.7273 137.915 38.6701C137.915 35.613 129.937 38.7273 129.937 32.8987C129.937 30.2988 132.118 28.5273 135.131 28.5273C138.632 28.5273 140.756 30.2988 140.928 33.1273H137.828C137.656 31.8987 136.623 31.0988 135.217 31.0988C133.983 31.0988 133.007 31.6702 133.007 32.7559C133.007 35.813 141.071 32.4416 141.071 38.413C141.071 41.3558 138.919 43.0987 135.504 43.0987C131.917 43.0987 129.765 41.2415 129.535 38.0987Z" fill="#004CC8"/>
<path d="M135.734 46.8701H132.176L134.299 42.7559H137.054L135.734 46.8701Z" fill="#004CC8"/>
<path d="M154.157 26.4153H148.504V23.1582H163.598V26.4153H157.945V42.8723H154.157V26.4153Z" fill="#004CC8"/>
<path d="M172.486 38.0577C172.056 39.4292 170.629 40.1844 169.194 40.1844C166.984 40.1844 165.55 38.9844 165.263 36.6987H175.88C175.909 36.413 175.938 35.9559 175.938 35.4701C175.938 32.0416 173.757 28.5273 168.936 28.5273C164.115 28.5273 161.848 31.9559 161.848 35.7559C161.848 39.5558 164.459 43.0987 169.194 43.0987C172.265 43.0987 174.61 41.6577 175.557 39.3434L172.486 38.0577ZM168.936 31.1845C171.031 31.1845 172.293 32.4702 172.437 34.2987H165.349C165.75 32.2702 166.984 31.1845 168.936 31.1845Z" fill="#004CC8"/>
<path d="M178.463 22.5859H181.993V34.0287H183.341L187.388 28.7573H191.577L186.268 35.5001L192.065 42.8715H187.789L183.341 36.9715H181.993V42.8715H178.463V22.5859Z" fill="#004CC8"/>
<path d="M193.672 28.7559H196.484L197.202 30.9845C197.976 29.4131 199.641 28.5273 201.707 28.5273C204.95 28.5273 207.073 30.8702 207.073 34.2416V42.8701H203.572V34.9844C203.572 33.013 202.338 31.6416 200.53 31.6416C198.579 31.6416 197.202 33.1845 197.202 35.2987V42.8701H193.672V28.7559Z" fill="#004CC8"/>
<path d="M209.34 35.813C209.34 31.5273 212.496 28.5273 216.916 28.5273C221.335 28.5273 224.463 31.5273 224.463 35.813C224.463 40.0987 221.306 43.0987 216.916 43.0987C212.525 43.0987 209.34 40.0987 209.34 35.813ZM220.905 35.813C220.905 33.213 219.298 31.5559 216.916 31.5559C214.534 31.5559 212.898 33.213 212.898 35.813C212.898 38.413 214.505 40.0701 216.916 40.0701C219.326 40.0701 220.905 38.413 220.905 35.813Z" fill="#004CC8"/>
<path d="M230.261 39.9001V22.5859H226.76V38.643C226.76 41.3286 228.424 42.8715 230.949 42.8715H232.786V39.9001H230.261Z" fill="#004CC8"/>
<path d="M233.646 35.813C233.646 31.5273 236.803 28.5273 241.222 28.5273C245.642 28.5273 248.77 31.5273 248.77 35.813C248.77 40.0987 245.613 43.0987 241.222 43.0987C236.832 43.0987 233.646 40.0987 233.646 35.813ZM245.211 35.813C245.211 33.213 243.604 31.5559 241.222 31.5559C238.841 31.5559 237.205 33.213 237.205 35.813C237.205 38.413 238.812 40.0701 241.222 40.0701C243.633 40.0701 245.211 38.413 245.211 35.813Z" fill="#004CC8"/>
<path d="M251.181 28.7575H254.711V44.0145C254.711 46.9573 252.903 48.7002 249.89 48.7002H248.369V45.9002H251.181V28.7575ZM251.397 26.0718C250.966 25.6623 250.751 25.1527 250.751 24.5432C250.751 23.9337 250.966 23.4004 251.397 23.0004C251.827 22.6004 252.358 22.4004 252.989 22.4004C253.621 22.4004 254.152 22.6004 254.582 23.0004C255.012 23.4004 255.228 23.9147 255.228 24.5432C255.228 25.1718 255.012 25.6623 254.582 26.0718C254.152 26.4813 253.621 26.6861 252.989 26.6861C252.358 26.6861 251.827 26.4813 251.397 26.0718Z" fill="#004CC8"/>
<path d="M257.983 28.7575H261.512V42.8717H257.983V28.7575ZM258.169 26.0718C257.739 25.6623 257.523 25.1527 257.523 24.5432C257.523 23.9337 257.739 23.4004 258.169 23.0004C258.6 22.6004 259.13 22.4004 259.762 22.4004C260.393 22.4004 260.924 22.6004 261.354 23.0004C261.785 23.4004 262 23.9147 262 24.5432C262 25.1718 261.785 25.6623 261.354 26.0718C260.924 26.4813 260.393 26.6861 259.762 26.6861C259.13 26.6861 258.6 26.4813 258.169 26.0718Z" fill="#004CC8"/>
<defs>
<linearGradient id="paint0_linear_6927_2562" x1="16.7593" y1="-2.11392" x2="33.0733" y2="46.1577" gradientUnits="userSpaceOnUse">
<stop stop-color="#004CC8"/>
<stop offset="0.1" stop-color="#0351CA"/>
<stop offset="0.23" stop-color="#0D62D2"/>
<stop offset="0.38" stop-color="#1E7DDF"/>
<stop offset="0.54" stop-color="#35A2F1"/>
<stop offset="0.65" stop-color="#48C0FF"/>
</linearGradient>
<linearGradient id="paint1_linear_6927_2562" x1="15.7291" y1="31.3141" x2="40.6646" y2="50.5319" gradientUnits="userSpaceOnUse">
<stop stop-color="#48C0FF"/>
<stop offset="0.16" stop-color="#45BBFD"/>
<stop offset="0.33" stop-color="#3DAFF7"/>
<stop offset="0.5" stop-color="#309AED"/>
<stop offset="0.68" stop-color="#1E7DDF"/>
<stop offset="0.85" stop-color="#0758CD"/>
<stop offset="0.9" stop-color="#004CC8"/>
</linearGradient>
</defs>
</svg>
