<svg id="amblem" xmlns="http://www.w3.org/2000/svg" width="64.757" height="64.724" viewBox="0 0 64.757 64.724">
  <ellipse id="Ellipse_1" data-name="Ellipse 1" cx="32.297" cy="32.297" rx="32.297" ry="32.297" transform="translate(0 0.065)" fill="#fff"/>
  <circle id="Ellipse_2" data-name="Ellipse 2" cx="32.362" cy="32.362" r="32.362" transform="translate(0.033)" fill="#fff"/>
  <g id="Group_1" data-name="Group 1" transform="translate(0.033)">
    <path id="Path_1" data-name="Path 1" d="M262.211,572.465c0,.1-.033.522-.033.685v2.186c0,.294.033.555.424.62v.065h-1.3v-.065c.391-.033.424-.261.424-.62v-1.794c0-.326,0-.457-.13-.457a3.136,3.136,0,0,0-.359.1l-.033-.065a3.276,3.276,0,0,0,.979-.718Z" transform="translate(-233.601 -517.495)" fill="#121718"/>
    <path id="Path_2" data-name="Path 2" d="M267.259,575.988c.783-.163,1.142-1.044,1.272-1.6a1.388,1.388,0,0,1-.685.228,1.024,1.024,0,0,1-.946-1.076,1.106,1.106,0,0,1,1.109-1.142,1.209,1.209,0,0,1,1.142,1.3,2.369,2.369,0,0,1-1.892,2.349Zm1.4-2.381c0-.685-.294-1.077-.652-1.077s-.62.391-.62.979c0,.522.261.946.685.946a.97.97,0,0,0,.489-.163,2.17,2.17,0,0,0,.1-.685" transform="translate(-237.441 -517.495)" fill="#121718"/>
    <path id="Path_3" data-name="Path 3" d="M275.559,575.988c.783-.163,1.142-1.044,1.272-1.6a1.388,1.388,0,0,1-.685.228,1.024,1.024,0,0,1-.946-1.076,1.106,1.106,0,0,1,1.109-1.142,1.209,1.209,0,0,1,1.142,1.3,2.369,2.369,0,0,1-1.892,2.349Zm1.37-2.381c0-.685-.294-1.077-.652-1.077s-.62.391-.62.979c0,.522.261.946.685.946a.97.97,0,0,0,.489-.163,2.169,2.169,0,0,0,.1-.685" transform="translate(-243.033 -517.495)" fill="#121718"/>
    <path id="Path_4" data-name="Path 4" d="M282.963,573.248a1.225,1.225,0,0,1,1.142-.848.927.927,0,0,1,.979.913,1.161,1.161,0,0,1-.294.75c-.163.2-.424.489-.555.62l-.913.913h1.011c.555,0,.75-.1.881-.228l.065.065a1.194,1.194,0,0,0-.326.587H282.8v-.065c.228-.2.457-.457.881-.914.587-.652.913-1.109.913-1.6a.653.653,0,0,0-.652-.718,1.054,1.054,0,0,0-.881.587Z" transform="translate(-248.154 -517.495)" fill="#121718"/>
    <path id="Path_5" data-name="Path 5" d="M236.519,483.106a19,19,0,1,1,19.019-19.019,19.019,19.019,0,0,1-19.019,19.019" transform="translate(-204.157 -431.725)" fill="#09a350" fill-rule="evenodd"/>
    <path id="Path_6" data-name="Path 6" d="M244.189,480.38a2.859,2.859,0,0,1-.522.065l3.2,13.18v-13.31a.382.382,0,0,1-.294-.359.393.393,0,0,1,.783,0,.382.382,0,0,1-.294.359v13.31l3.2-13.147a2.534,2.534,0,0,1-.522-.065,2.478,2.478,0,0,1,.555-4.893h1.631a2.478,2.478,0,0,1,.555,4.893,2.852,2.852,0,0,1-.522.065l3.2,13.147v-13.31a.355.355,0,0,1-.294-.359.393.393,0,0,1,.783,0,.382.382,0,0,1-.294.359v13.31l3.2-13.147a2.853,2.853,0,0,1-.522-.065,2.474,2.474,0,0,1,.522-4.893h3.295v-4.372h.816l.359-.587h-1.468c.261-.163,1.174-.685.881-1.4a3.98,3.98,0,0,0-.587-.718,1.242,1.242,0,0,1-.391-1.044l.033-.163a.952.952,0,0,0-.555.2.7.7,0,0,0-.326.489,1.138,1.138,0,0,0,.489.913,1.823,1.823,0,0,1,.685,1.011,1.044,1.044,0,0,1-.261.718h-.163a.818.818,0,0,0,.228-.913c-.2-.457-.652-.718-.848-.979a1.383,1.383,0,0,1-.228-.62s-.522.457-.457.848.685.587.913.75a.981.981,0,0,1,.391.457.717.717,0,0,1-.033.457h-.163a.622.622,0,0,0,.1-.261.507.507,0,0,0-.228-.424,3.016,3.016,0,0,0-.75-.391c-.261-.1-.359-.489-.359-.522a.581.581,0,0,0-.163.489c.065.228.294.326.718.522a1.341,1.341,0,0,1,.62.587H259.62v.587h1.272c0,.1.033.163.033.261a2.45,2.45,0,0,1-2.447,2.447h-.033a2.478,2.478,0,0,1-2.479-2.479v-.2h0v-.228a1.976,1.976,0,1,0-1.664-.033v.261h0v.2a2.478,2.478,0,0,1-2.479,2.479h-1.631a2.478,2.478,0,0,1-2.479-2.479v-.2h0v-.261a1.956,1.956,0,1,0-2.806-1.762,2.044,2.044,0,0,0,1.142,1.794v.228h0v.2a2.478,2.478,0,0,1-2.479,2.479h-.033a2.527,2.527,0,0,1-1.729-.718,2.388,2.388,0,0,1-.718-1.729v-.261h1.272v-.587h-1.4a1.523,1.523,0,0,1,.62-.587c.457-.2.685-.294.718-.522.065-.228-.163-.489-.163-.489a.652.652,0,0,1-.359.522,3.015,3.015,0,0,0-.75.391.507.507,0,0,0-.228.424.622.622,0,0,0,.1.261h-.163a.717.717,0,0,1-.033-.457.981.981,0,0,1,.391-.457c.228-.163.848-.359.913-.75s-.457-.848-.457-.848a1.522,1.522,0,0,1-.228.62c-.2.261-.652.522-.848.979a.785.785,0,0,0,.228.913h0a1.228,1.228,0,0,1-.261-.718c.033-.359.391-.685.685-1.011a1.121,1.121,0,0,0,.457-.913.551.551,0,0,0-.326-.489,1.555,1.555,0,0,0-.587-.2l.033.163a1.3,1.3,0,0,1-.424,1.044,8.557,8.557,0,0,0-.587.718c-.294.718.62,1.24.881,1.4H239.1l.359.587h.816v4.372h3.295A2.478,2.478,0,0,1,246.049,478a2.272,2.272,0,0,1-1.86,2.381" transform="translate(-218.71 -446.615)" fill="#fff"/>
    <path id="Path_7" data-name="Path 7" d="M213.544,410.9a30.144,30.144,0,1,0,30.144,30.144A30.136,30.136,0,0,0,213.544,410.9m0,59.244h0a29.116,29.116,0,1,1,29.1-29.133,29.113,29.113,0,0,1-29.1,29.133" transform="translate(-181.182 -408.682)" fill="#09a350" fill-rule="evenodd"/>
    <path id="Path_8" data-name="Path 8" d="M211.745,534.417l-4.7,3.034-.685-1.011,2.153-1.37-3.164-.2-.75-1.175,3.262.294L209.3,530.6l.783,1.207-1.468,3.164,2.479-1.566Z" transform="translate(-195.466 -489.332)" fill="#121718"/>
    <path id="Path_9" data-name="Path 9" d="M200.63,513.931a2.314,2.314,0,0,1,1.142-.1,2.481,2.481,0,0,1,1.077.359,2.546,2.546,0,0,1,.881.783,2.626,2.626,0,0,1,.522,1.044,3.442,3.442,0,0,1,.13,1.011,3.507,3.507,0,0,1-.228,1.011,2.679,2.679,0,0,1-.75,1.044,2.866,2.866,0,0,1-1.109.62,3.461,3.461,0,0,1-1.142.1,2.482,2.482,0,0,1-1.077-.359,3.314,3.314,0,0,1-.881-.783,2.627,2.627,0,0,1-.522-1.044,3.461,3.461,0,0,1-.1-1.142,2.617,2.617,0,0,1,.359-1.109,2.745,2.745,0,0,1,.718-.881,2.637,2.637,0,0,1,.979-.555m2.642,2.349h0a1.5,1.5,0,0,0-.881-1.044,1.81,1.81,0,0,0-1.435-.1,2.016,2.016,0,0,0-1.142.848,1.56,1.56,0,0,0-.163,1.37,1.5,1.5,0,0,0,.881,1.044,2.066,2.066,0,0,0,2.577-.75,1.659,1.659,0,0,0,.163-1.37" transform="translate(-191.398 -478.013)" fill="#121718"/>
    <path id="Path_10" data-name="Path 10" d="M197.46,493.931a2.343,2.343,0,0,0-.489.718,1.844,1.844,0,0,0-.131.391,1.724,1.724,0,0,0-.033.424,1.806,1.806,0,0,0,.489,1.435,1.915,1.915,0,0,0,1.435.555,1.97,1.97,0,0,0,1.4-.457,1.7,1.7,0,0,0,.555-1.337,2.815,2.815,0,0,0-.13-.914,2.353,2.353,0,0,0-.457-.783l1.24.033a3.548,3.548,0,0,1,.326.816,4.049,4.049,0,0,1,.1.881,3.165,3.165,0,0,1-.881,2.186,2.929,2.929,0,0,1-2.12.816,2.883,2.883,0,0,1-2.088-.913,2.982,2.982,0,0,1-.783-2.251,2.749,2.749,0,0,1,.13-.881,2.111,2.111,0,0,1,.131-.424,2.454,2.454,0,0,1,.2-.424Z" transform="translate(-189.598 -464.537)" fill="#121718"/>
    <path id="Path_11" data-name="Path 11" d="M203.8,481.683l-4.7-3.719.424-1.3,6-.359-.424,1.3-1.272.065-.652,2.055,1.011.718Zm-.946-4.045h0l-1.925.065-.294-.033-.489-.065c.163.1.326.163.457.228l.261.163,1.533,1.109Z" transform="translate(-191.76 -452.746)" fill="#121718"/>
    <path id="Path_12" data-name="Path 12" d="M210.363,462.442l-4.763-2.969,1.729-2.773.881.522-1.109,1.794.946.587,1.142-1.762.848.522-1.109,1.794,1.207.75,1.109-1.794.848.522Z" transform="translate(-196.139 -439.54)" fill="#121718"/>
    <path id="Path_13" data-name="Path 13" d="M219.913,452.663l-4.013-3.915.848-.848,3.262,3.2,1.338-1.37.75.718Z" transform="translate(-203.079 -433.611)" fill="#121718"/>
    <path id="Path_14" data-name="Path 14" d="M225.1,435.023a.7.7,0,0,1-.1-.391.645.645,0,0,1,.2-.359.451.451,0,0,1,.392-.1.644.644,0,0,1,.359.2.429.429,0,0,1,.1.391.62.62,0,0,1-.228.359.508.508,0,0,1-.391.1.869.869,0,0,1-.326-.2m3.98,5.579h0l-3.328-4.535.979-.718,3.295,4.535Z" transform="translate(-209.21 -424.355)" fill="#121718"/>
    <path id="Path_15" data-name="Path 15" d="M251.432,422.13l.979,3.36a2.357,2.357,0,0,1-.1,1.794,2.7,2.7,0,0,1-1.6,1.044,2.741,2.741,0,0,1-1.925-.033,2.226,2.226,0,0,1-1.044-1.468l-.946-3.36,1.142-.326.913,3.164a1.494,1.494,0,0,0,.587.914,1.227,1.227,0,0,0,.979.1,1.158,1.158,0,0,0,.783-.587,1.518,1.518,0,0,0,0-1.077l-.913-3.164Zm-3.85-.2a.521.521,0,0,0,.228.294.526.526,0,0,0,.685-.2.546.546,0,0,0,.033-.392.521.521,0,0,0-.228-.294.472.472,0,0,0-.359-.033.52.52,0,0,0-.294.228.615.615,0,0,0-.065.391m1.37-.391h0a.355.355,0,0,1,.065-.359.415.415,0,0,1,.294-.228.545.545,0,0,1,.391.033.415.415,0,0,1,.228.294.546.546,0,0,1-.033.391.415.415,0,0,1-.294.228.545.545,0,0,1-.391-.033.538.538,0,0,1-.261-.326" transform="translate(-223.899 -415.443)" fill="#121718"/>
    <path id="Path_16" data-name="Path 16" d="M269.8,428.911l.163-5.611,1.24.033,2.381,3.328c.065.1.13.228.228.392.065.163.163.359.261.587a.636.636,0,0,0-.033-.228.718.718,0,0,0-.033-.261v-.587l.1-3.132,1.142.033-.163,5.611-1.174-.033-2.447-3.393c-.065-.1-.13-.228-.228-.391-.065-.163-.163-.359-.261-.62a2.467,2.467,0,0,1,.033.489v.62l-.1,3.2Z" transform="translate(-239.395 -417.037)" fill="#121718"/>
    <path id="Path_17" data-name="Path 17" d="M290.2,428.022l1.468-5.415,1.174.326-1.468,5.415Zm1.86-6.59h0a.521.521,0,0,1,.228-.294.562.562,0,0,1,.391-.065.617.617,0,0,1,.326.261.562.562,0,0,1,.065.391.6.6,0,0,1-.228.326.561.561,0,0,1-.391.065.463.463,0,0,1-.294-.261.5.5,0,0,1-.1-.424" transform="translate(-253.14 -415.528)" fill="#121718"/>
    <path id="Path_18" data-name="Path 18" d="M302.1,434.238l.62-5.937,1.174.587-.587,3.621-.1.391-.163.652a3.617,3.617,0,0,1,.391-.522c.065-.065.1-.131.163-.2s.1-.131.163-.163l2.512-2.61,1.174.587-4.372,4.078Z" transform="translate(-261.158 -420.405)" fill="#121718"/>
    <path id="Path_19" data-name="Path 19" d="M312.7,443.674l3.654-4.274,2.512,2.153-.652.783-1.6-1.37-.75.881,1.6,1.37-.652.75-1.6-1.338-.914,1.044,1.6,1.37-.685.783Z" transform="translate(-268.3 -427.884)" fill="#121718"/>
    <path id="Path_20" data-name="Path 20" d="M325.614,458.49l-.816-1.109,1.24-2.74-2.121,1.533-.718-.979,4.535-3.295,1.011,1.37a2.664,2.664,0,0,1,.587,1.468,1.4,1.4,0,0,1-.652,1.109,1.471,1.471,0,0,1-1.011.294,1.305,1.305,0,0,1-.913-.457Zm.913-4.176h0l.1.131a2.149,2.149,0,0,0,.685.685.581.581,0,0,0,.587-.13.681.681,0,0,0,.326-.555,1.715,1.715,0,0,0-.424-.881l-.1-.13Z" transform="translate(-275.375 -436.306)" fill="#121718"/>
    <path id="Path_21" data-name="Path 21" d="M332.559,470l.946.326a1.028,1.028,0,0,0-.294.555,1.49,1.49,0,0,0,.065.652.824.824,0,0,0,.457.522.738.738,0,0,0,.587.033c.228-.1.391-.457.424-1.044l.033-.457a2.877,2.877,0,0,1,.294-1.24,1.509,1.509,0,0,1,.685-.587,1.457,1.457,0,0,1,1.272.065,2.083,2.083,0,0,1,.946,1.142,1.4,1.4,0,0,1,.13.457,1.859,1.859,0,0,1,.033.424,1.6,1.6,0,0,1-.261.816l-.914-.392a.644.644,0,0,0,.2-.457,1,1,0,0,0-.065-.522.8.8,0,0,0-.392-.457.584.584,0,0,0-.522-.033c-.261.1-.391.489-.424,1.109v.294a2.6,2.6,0,0,1-.261,1.24,1.458,1.458,0,0,1-.718.685,1.67,1.67,0,0,1-1.37,0,2.035,2.035,0,0,1-.979-1.142,2.814,2.814,0,0,1-.228-1.109,1.35,1.35,0,0,1,.359-.881" transform="translate(-281.439 -447.59)" fill="#121718"/>
    <path id="Path_22" data-name="Path 22" d="M336.5,485.077l5.481-1.207.261,1.174-5.481,1.207Zm6.688-1.4h0a.562.562,0,0,1,.391.065.472.472,0,0,1,.228.326.561.561,0,0,1-.065.391.471.471,0,0,1-.326.228.561.561,0,0,1-.391-.065.472.472,0,0,1-.228-.326.561.561,0,0,1,.065-.392.746.746,0,0,1,.326-.228" transform="translate(-284.336 -457.706)" fill="#121718"/>
    <path id="Path_23" data-name="Path 23" d="M342.933,496.61l-4.567.2L338.3,495.6l4.6-.2-.065-1.37,1.011-.033.163,3.947L343,497.98Z" transform="translate(-285.548 -464.672)" fill="#121718"/>
    <path id="Path_24" data-name="Path 24" d="M337.087,509.7l5.513,1.044-.587,3.23-1.011-.2.392-2.055-1.142-.2-.391,2.055-.979-.2.359-2.055-1.37-.261-.391,2.088-.979-.2Z" transform="translate(-284.336 -475.25)" fill="#121718"/>
    <path id="Path_25" data-name="Path 25" d="M334.279,523.4l.424.913a1.074,1.074,0,0,0-.62.2.943.943,0,0,0-.391.489,1.033,1.033,0,0,0-.065.685.714.714,0,0,0,.391.424c.228.1.587-.033,1.044-.457l.359-.294a3.352,3.352,0,0,1,1.077-.652,1.467,1.467,0,0,1,.913.065,1.443,1.443,0,0,1,.848.946,2.224,2.224,0,0,1-.13,1.5,1.758,1.758,0,0,1-.228.424,1.4,1.4,0,0,1-.294.326,1.513,1.513,0,0,1-.75.391l-.359-.913a.779.779,0,0,0,.457-.163,1.125,1.125,0,0,0,.326-.424.964.964,0,0,0,.065-.587.653.653,0,0,0-.326-.392q-.391-.147-1.077.489l-.2.2a2.929,2.929,0,0,1-1.077.685,1.532,1.532,0,0,1-1.011-.033,1.562,1.562,0,0,1-.946-.979,2.046,2.046,0,0,1,.13-1.5,2.493,2.493,0,0,1,.62-.914,1.121,1.121,0,0,1,.816-.424" transform="translate(-281.723 -484.481)" fill="#121718"/>
    <path id="Path_26" data-name="Path 26" d="M327.652,536.5l4.665,3.1-.652,1.011-4.665-3.1Zm5.644,3.849h0a.472.472,0,0,1,.228.326.506.506,0,0,1-.065.391.6.6,0,0,1-.326.228.562.562,0,0,1-.391-.065.471.471,0,0,1-.228-.326.561.561,0,0,1,.065-.391.471.471,0,0,1,.326-.228.431.431,0,0,1,.391.065" transform="translate(-277.935 -493.307)" fill="#121718"/>
    <path id="Path_27" data-name="Path 27" d="M208.962,404.1a32.362,32.362,0,1,0,32.362,32.362A32.357,32.357,0,0,0,208.962,404.1m0,63.615h0a31.269,31.269,0,1,1,31.253-31.286,31.291,31.291,0,0,1-31.253,31.286" transform="translate(-176.6 -404.1)" fill="#121718" fill-rule="evenodd"/>
  </g>
</svg>
